<svg width="1000" height="997" viewBox="0 0 1000 997" fill="none" xmlns="http://www.w3.org/2000/svg">
<g opacity="0.15">
<path d="M83.3333 498.039C83.3333 461.101 88.3333 424.994 97.5 390.961L17.0833 369.379C5.83333 410.467 0 453.631 0 498.039C0 635.415 55.8333 759.925 146.25 850.402L205.417 791.467C130 716.761 83.3333 613.003 83.3333 498.039Z" fill="#0040A7"/>
<path d="M642.5 888.17C597.917 904.356 550 913.072 500 913.072C475.417 913.072 451.25 910.997 427.917 906.846L413.333 988.608C441.25 993.588 470.417 996.078 500 996.078C560 996.078 617.5 985.703 670.833 966.196L642.5 888.17Z" fill="#0040A7"/>
<path d="M786.667 90.062L738.75 158.127C788.333 192.575 830.417 237.814 860.833 290.523L932.917 249.02C896.25 185.935 846.25 131.565 786.667 90.062Z" fill="#0040A7"/>
<path d="M288.75 46.8987L323.75 122.02C377.083 97.1176 437.083 83.0065 500 83.0065C562.917 83.0065 622.917 97.1176 676.25 122.02L711.25 46.8987C647.083 16.6013 575.417 0 500 0C424.583 0 352.917 16.6013 288.75 46.8987Z" fill="#0060FB"/>
<path d="M970 327.461L891.667 356.098C907.917 400.506 916.667 448.235 916.667 498.039C916.667 547.843 907.917 595.987 891.667 639.98L970 668.618C989.167 615.493 1000 557.804 1000 498.039C1000 438.274 989.167 380.585 970 327.461Z" fill="#0060FB"/>
<path d="M860.833 705.556C824.583 768.641 771.667 820.935 708.333 857.458L750 929.673C825.833 886.095 889.167 823.01 932.917 747.059L860.833 705.556Z" fill="#0051D2"/>
<path d="M261.25 837.951L213.333 906.016C248.75 930.918 287.5 951.255 329.167 966.196L357.5 888.17C322.917 875.719 290.833 858.703 261.25 837.951Z" fill="#0060FB"/>
<path d="M213.333 90.062C141.667 139.866 84.1667 207.931 46.6667 287.618L122.5 322.895C153.333 256.49 201.667 199.631 261.25 158.127L213.333 90.062Z" fill="#0051D2"/>
<path d="M676.667 322.065L441.25 556.559L323.333 439.52L264.167 498.039L441.25 674.013L500 615.494L735.833 380.585L676.667 322.065Z" fill="#0051D2"/>
</g>
</svg>
