<?xml version="1.0" encoding="UTF-8"?><svg id="Layer_2" xmlns="http://www.w3.org/2000/svg" width="32" height="32" viewBox="0 0 32 32"><defs><style>.cls-1{fill:#0040a7;}.cls-2{fill:#0051d2;}.cls-3{fill:#0060fb;}</style></defs><path class="cls-1" d="M2.67,16c0-1.19,.16-2.35,.45-3.44l-2.57-.69c-.36,1.32-.55,2.71-.55,4.13,0,4.41,1.79,8.41,4.68,11.32l1.89-1.89c-2.41-2.4-3.91-5.73-3.91-9.43Z"/><path class="cls-1" d="M20.56,28.53c-1.43,.52-2.96,.8-4.56,.8-.79,0-1.56-.07-2.31-.2l-.47,2.63c.89,.16,1.83,.24,2.77,.24,1.92,0,3.76-.33,5.47-.96l-.91-2.51Z"/><path class="cls-1" d="M25.17,2.89l-1.53,2.19c1.59,1.11,2.93,2.56,3.91,4.25l2.31-1.33c-1.17-2.03-2.77-3.77-4.68-5.11Z"/><path class="cls-3" d="M9.24,1.51l1.12,2.41c1.71-.8,3.63-1.25,5.64-1.25s3.93,.45,5.64,1.25l1.12-2.41C20.71,.53,18.41,0,16,0s-4.71,.53-6.76,1.51Z"/><path class="cls-3" d="M31.04,10.52l-2.51,.92c.52,1.43,.8,2.96,.8,4.56s-.28,3.15-.8,4.56l2.51,.92c.61-1.71,.96-3.56,.96-5.48s-.35-3.77-.96-5.48Z"/><path class="cls-2" d="M27.55,22.67c-1.16,2.03-2.85,3.71-4.88,4.88l1.33,2.32c2.43-1.4,4.45-3.43,5.85-5.87l-2.31-1.33Z"/><path class="cls-3" d="M8.36,26.92l-1.53,2.19c1.13,.8,2.37,1.45,3.71,1.93l.91-2.51c-1.11-.4-2.13-.95-3.08-1.61Z"/><path class="cls-2" d="M6.83,2.89c-2.29,1.6-4.13,3.79-5.33,6.35l2.43,1.13c.99-2.13,2.53-3.96,4.44-5.29l-1.53-2.19Z"/><path class="cls-2" d="M21.65,10.35l-7.53,7.53-3.77-3.76-1.89,1.88,5.67,5.65,1.88-1.88,7.55-7.55-1.89-1.88Z"/></svg>