<svg width="24" height="24" viewBox="0 0 24 24" fill="none" xmlns="http://www.w3.org/2000/svg">
<ellipse cx="12" cy="13.5" rx="10" ry="9.5" fill="white" fill-opacity="0.2"/>
<path d="M12.5303 7.86957C12.671 8.01022 12.75 8.20099 12.75 8.3999V13.4999C12.75 13.6988 12.671 13.8896 12.5303 14.0302C12.3897 14.1709 12.1989 14.2499 12 14.2499H6.75C6.55109 14.2499 6.36032 14.1709 6.21967 14.0302C6.07902 13.8896 6 13.6988 6 13.4999C6 13.301 6.07902 13.1102 6.21967 12.9696C6.36032 12.8289 6.55109 12.7499 6.75 12.7499H11.25V8.3999C11.25 8.20099 11.329 8.01022 11.4697 7.86957C11.6103 7.72892 11.8011 7.6499 12 7.6499C12.1989 7.6499 12.3897 7.72892 12.5303 7.86957Z" fill="white"/>
<path fill-rule="evenodd" clip-rule="evenodd" d="M9.96974 0.96967C9.82909 1.11032 9.75007 1.30109 9.75007 1.5C9.75007 1.69891 9.82909 1.88968 9.96974 2.03033C10.1104 2.17098 10.3012 2.25 10.5001 2.25V3.1065C8.1914 3.43944 6.05931 4.53164 4.44024 6.21076C2.82118 7.88988 1.80731 10.0603 1.55864 12.3796C1.30996 14.6988 1.84063 17.0349 3.06691 19.0191C4.29319 21.0033 6.14525 22.5227 8.33086 23.3375C10.5165 24.1523 12.9112 24.2162 15.1371 23.519C17.363 22.8218 19.2935 21.4033 20.6238 19.4873C21.9541 17.5713 22.6085 15.2669 22.4838 12.9376C22.3591 10.6084 21.4623 8.38703 19.9351 6.624L19.9546 6.606L20.4856 6.075L21.0151 6.606C21.0843 6.67763 21.167 6.73477 21.2585 6.77408C21.35 6.81338 21.4484 6.83407 21.548 6.83494C21.6476 6.8358 21.7464 6.81683 21.8385 6.77912C21.9307 6.74141 22.0145 6.68571 22.0849 6.6153C22.1553 6.54488 22.211 6.46114 22.2487 6.36897C22.2864 6.27679 22.3054 6.17803 22.3045 6.07845C22.3036 5.97886 22.283 5.88045 22.2436 5.78895C22.2043 5.69744 22.1472 5.61468 22.0756 5.5455L19.9546 3.423C19.8137 3.28237 19.6228 3.20344 19.4238 3.20358C19.2248 3.20372 19.034 3.28292 18.8933 3.42375C18.7527 3.56458 18.6738 3.75551 18.6739 3.95453C18.674 4.15355 18.7532 4.34437 18.8941 4.485L19.4251 5.0145L18.8941 5.5455L18.8761 5.565C17.3911 4.275 15.5401 3.399 13.5001 3.105V2.25C13.699 2.25 13.8898 2.17098 14.0304 2.03033C14.1711 1.88968 14.2501 1.69891 14.2501 1.5C14.2501 1.30109 14.1711 1.11032 14.0304 0.96967C13.8898 0.829018 13.699 0.75 13.5001 0.75H10.5001C10.3012 0.75 10.1104 0.829018 9.96974 0.96967ZM8.55598 5.18537C9.64787 4.73299 10.8182 4.5001 12.0001 4.5C14.387 4.4998 16.6763 5.44782 18.3643 7.13551C20.0522 8.82319 21.0006 11.1123 21.0008 13.4992C21.001 15.8862 20.053 18.1755 18.3653 19.8634C16.6776 21.5514 14.3885 22.4998 12.0016 22.5C9.61462 22.5002 7.32536 21.5522 5.63739 19.8645C3.94942 18.1768 3.00102 15.8877 3.00082 13.5007C3.00062 11.1138 3.94864 8.82454 5.63633 7.13657C6.47199 6.30077 7.46409 5.63775 8.55598 5.18537Z" fill="white"/>
</svg>
