<svg width="112" height="28" viewBox="0 0 112 28" fill="none" xmlns="http://www.w3.org/2000/svg">
<g filter="url(#filter0_d_47_56780)">
<path d="M103.835 8V14.936H104.203C104.31 14.936 104.398 14.9227 104.467 14.896C104.542 14.864 104.619 14.8027 104.699 14.712L107.259 11.968C107.334 11.8773 107.411 11.808 107.491 11.76C107.577 11.7067 107.689 11.68 107.827 11.68H109.115L106.131 14.856C105.987 15.0373 105.833 15.1787 105.667 15.28C105.763 15.344 105.849 15.4187 105.923 15.504C106.003 15.584 106.078 15.6773 106.147 15.784L109.315 19.784H108.043C107.921 19.784 107.814 19.7653 107.723 19.728C107.638 19.6853 107.563 19.6107 107.499 19.504L104.835 16.184C104.755 16.072 104.675 16 104.595 15.968C104.521 15.9307 104.403 15.912 104.243 15.912H103.835V19.784H102.403V8H103.835Z" fill="#0051D2"/>
<path d="M100.403 13.12C100.36 13.1787 100.317 13.224 100.275 13.256C100.232 13.288 100.173 13.304 100.099 13.304C100.019 13.304 99.9306 13.272 99.8346 13.208C99.7386 13.1387 99.6186 13.064 99.4746 12.984C99.336 12.904 99.1626 12.832 98.9546 12.768C98.752 12.6987 98.5013 12.664 98.2026 12.664C97.8026 12.664 97.4506 12.736 97.1466 12.88C96.8426 13.0187 96.5866 13.2213 96.3786 13.488C96.176 13.7547 96.0213 14.0773 95.9146 14.456C95.8133 14.8347 95.7626 15.2587 95.7626 15.728C95.7626 16.2187 95.8186 16.656 95.9306 17.04C96.0426 17.4187 96.2 17.7387 96.4026 18C96.6106 18.256 96.8586 18.4533 97.1466 18.592C97.44 18.7253 97.768 18.792 98.1306 18.792C98.4773 18.792 98.7626 18.752 98.9866 18.672C99.2106 18.5867 99.3946 18.4933 99.5386 18.392C99.688 18.2907 99.8106 18.2 99.9066 18.12C100.008 18.0347 100.107 17.992 100.203 17.992C100.32 17.992 100.411 18.0373 100.475 18.128L100.875 18.648C100.699 18.8667 100.499 19.0533 100.275 19.208C100.051 19.3627 99.808 19.4933 99.5466 19.6C99.2906 19.7013 99.0213 19.776 98.7386 19.824C98.456 19.872 98.168 19.896 97.8746 19.896C97.368 19.896 96.896 19.8027 96.4586 19.616C96.0266 19.4293 95.6506 19.16 95.3306 18.808C95.0106 18.4507 94.76 18.0133 94.5786 17.496C94.3973 16.9787 94.3066 16.3893 94.3066 15.728C94.3066 15.1253 94.3893 14.568 94.5546 14.056C94.7253 13.544 94.9706 13.104 95.2906 12.736C95.616 12.3627 96.0133 12.072 96.4826 11.864C96.9573 11.656 97.5013 11.552 98.1146 11.552C98.6853 11.552 99.1866 11.6453 99.6186 11.832C100.056 12.0133 100.443 12.272 100.779 12.608L100.403 13.12Z" fill="#0051D2"/>
<path d="M91.2017 16.1359C90.5457 16.1572 89.9857 16.2106 89.5217 16.2959C89.063 16.3759 88.687 16.4826 88.3937 16.6159C88.1057 16.7492 87.895 16.9066 87.7617 17.0879C87.6337 17.2692 87.5697 17.4719 87.5697 17.6959C87.5697 17.9092 87.6043 18.0932 87.6737 18.2479C87.743 18.4026 87.8363 18.5306 87.9537 18.6319C88.0763 18.7279 88.2177 18.7999 88.3777 18.8479C88.543 18.8906 88.719 18.9119 88.9057 18.9119C89.1563 18.9119 89.3857 18.8879 89.5937 18.8399C89.8017 18.7866 89.9963 18.7119 90.1777 18.6159C90.3643 18.5199 90.5403 18.4052 90.7057 18.2719C90.8763 18.1386 91.0417 17.9866 91.2017 17.8159V16.1359ZM86.6017 12.8239C87.0497 12.3919 87.5323 12.0692 88.0497 11.8559C88.567 11.6426 89.1403 11.5359 89.7697 11.5359C90.223 11.5359 90.6257 11.6106 90.9777 11.7599C91.3297 11.9092 91.6257 12.1172 91.8657 12.3839C92.1057 12.6506 92.287 12.9732 92.4097 13.3519C92.5323 13.7306 92.5937 14.1466 92.5937 14.5999V19.7839H91.9617C91.823 19.7839 91.7163 19.7626 91.6417 19.7199C91.567 19.6719 91.5083 19.5812 91.4657 19.4479L91.3057 18.6799C91.0923 18.8772 90.8843 19.0532 90.6817 19.2079C90.479 19.3572 90.2657 19.4852 90.0417 19.5919C89.8177 19.6932 89.5777 19.7706 89.3217 19.8239C89.071 19.8826 88.791 19.9119 88.4817 19.9119C88.167 19.9119 87.871 19.8692 87.5937 19.7839C87.3163 19.6932 87.0737 19.5599 86.8657 19.3839C86.663 19.2079 86.5003 18.9866 86.3777 18.7199C86.2603 18.4479 86.2017 18.1279 86.2017 17.7599C86.2017 17.4399 86.2897 17.1332 86.4657 16.8399C86.6417 16.5412 86.927 16.2772 87.3217 16.0479C87.7163 15.8186 88.231 15.6319 88.8657 15.4879C89.5003 15.3386 90.279 15.2532 91.2017 15.2319V14.5999C91.2017 13.9706 91.0657 13.4959 90.7937 13.1759C90.5217 12.8506 90.1243 12.6879 89.6017 12.6879C89.2497 12.6879 88.9537 12.7332 88.7137 12.8239C88.479 12.9092 88.2737 13.0079 88.0977 13.1199C87.927 13.2266 87.7777 13.3252 87.6497 13.4159C87.527 13.5012 87.4043 13.5439 87.2817 13.5439C87.1857 13.5439 87.103 13.5199 87.0337 13.4719C86.9643 13.4186 86.9057 13.3546 86.8577 13.2799L86.6017 12.8239Z" fill="#0051D2"/>
<path d="M82.4584 13.3039C82.7144 12.7492 83.0291 12.3172 83.4024 12.0079C83.7758 11.6932 84.2318 11.5359 84.7704 11.5359C84.9411 11.5359 85.1038 11.5546 85.2584 11.5919C85.4184 11.6292 85.5598 11.6879 85.6824 11.7679L85.5784 12.8319C85.5464 12.9652 85.4664 13.0319 85.3384 13.0319C85.2638 13.0319 85.1544 13.0159 85.0104 12.9839C84.8664 12.9519 84.7038 12.9359 84.5224 12.9359C84.2664 12.9359 84.0371 12.9732 83.8344 13.0479C83.6371 13.1226 83.4584 13.2346 83.2984 13.3839C83.1438 13.5279 83.0024 13.7092 82.8744 13.9279C82.7518 14.1412 82.6398 14.3866 82.5384 14.6639V19.7839H81.1064V11.6799H81.9224C82.0771 11.6799 82.1838 11.7092 82.2424 11.7679C82.3011 11.8266 82.3411 11.9279 82.3624 12.0719L82.4584 13.3039Z" fill="#0051D2"/>
<path d="M81.507 9.62407H77.795V19.7841H76.251V9.62407H72.531V8.32007H81.507V9.62407Z" fill="#0051D2"/>
</g>
<g filter="url(#filter1_d_47_56780)">
<path d="M72.5311 11.6802L68.0111 22.1762C67.9631 22.2828 67.9018 22.3682 67.8271 22.4322C67.7578 22.4962 67.6484 22.5282 67.4991 22.5282H66.4431L67.9231 19.3122L64.5791 11.6802H65.8111C65.9338 11.6802 66.0298 11.7122 66.0991 11.7762C66.1738 11.8348 66.2244 11.9015 66.2511 11.9762L68.4191 17.0802C68.5044 17.3042 68.5764 17.5388 68.6351 17.7842C68.7098 17.5335 68.7898 17.2962 68.8751 17.0722L70.9791 11.9762C71.0111 11.8908 71.0644 11.8215 71.1391 11.7682C71.2191 11.7095 71.3071 11.6802 71.4031 11.6802H72.5311Z" fill="#0060FB"/>
<path d="M63.4778 13.016C63.4138 13.1333 63.3151 13.192 63.1818 13.192C63.1018 13.192 63.0111 13.1627 62.9098 13.104C62.8084 13.0453 62.6831 12.9813 62.5338 12.912C62.3898 12.8373 62.2164 12.7707 62.0138 12.712C61.8111 12.648 61.5711 12.616 61.2938 12.616C61.0538 12.616 60.8378 12.648 60.6458 12.712C60.4538 12.7707 60.2884 12.8533 60.1498 12.96C60.0164 13.0667 59.9124 13.192 59.8378 13.336C59.7684 13.4747 59.7338 13.6267 59.7338 13.792C59.7338 14 59.7924 14.1733 59.9098 14.312C60.0324 14.4507 60.1924 14.5707 60.3898 14.672C60.5871 14.7733 60.8111 14.864 61.0618 14.944C61.3124 15.0187 61.5684 15.1013 61.8298 15.192C62.0964 15.2773 62.3551 15.3733 62.6058 15.48C62.8564 15.5867 63.0804 15.72 63.2778 15.88C63.4751 16.04 63.6324 16.2373 63.7498 16.472C63.8724 16.7013 63.9338 16.9787 63.9338 17.304C63.9338 17.6773 63.8671 18.024 63.7338 18.344C63.6004 18.6587 63.4031 18.9333 63.1418 19.168C62.8804 19.3973 62.5604 19.5787 62.1818 19.712C61.8031 19.8453 61.3658 19.912 60.8698 19.912C60.3044 19.912 59.7924 19.8213 59.3338 19.64C58.8751 19.4533 58.4858 19.216 58.1658 18.928L58.5018 18.384C58.5444 18.3147 58.5951 18.2613 58.6538 18.224C58.7124 18.1867 58.7871 18.168 58.8778 18.168C58.9738 18.168 59.0751 18.2053 59.1818 18.28C59.2884 18.3547 59.4164 18.4373 59.5658 18.528C59.7204 18.6187 59.9071 18.7013 60.1258 18.776C60.3444 18.8507 60.6164 18.888 60.9418 18.888C61.2191 18.888 61.4618 18.8533 61.6698 18.784C61.8778 18.7093 62.0511 18.6107 62.1898 18.488C62.3284 18.3653 62.4298 18.224 62.4938 18.064C62.5631 17.904 62.5978 17.7333 62.5978 17.552C62.5978 17.328 62.5364 17.144 62.4138 17C62.2964 16.8507 62.1391 16.7253 61.9418 16.624C61.7444 16.5173 61.5178 16.4267 61.2618 16.352C61.0111 16.272 60.7524 16.1893 60.4858 16.104C60.2244 16.0187 59.9658 15.9227 59.7098 15.816C59.4591 15.704 59.2351 15.5653 59.0378 15.4C58.8404 15.2347 58.6804 15.032 58.5578 14.792C58.4404 14.5467 58.3818 14.2507 58.3818 13.904C58.3818 13.5947 58.4458 13.2987 58.5738 13.016C58.7018 12.728 58.8884 12.4773 59.1338 12.264C59.3791 12.0453 59.6804 11.872 60.0378 11.744C60.3951 11.616 60.8031 11.552 61.2618 11.552C61.7951 11.552 62.2724 11.6373 62.6938 11.808C63.1204 11.9733 63.4884 12.2027 63.7978 12.496L63.4778 13.016Z" fill="#0060FB"/>
<path d="M55.1965 16.1361C54.5405 16.1575 53.9805 16.2108 53.5165 16.2961C53.0579 16.3761 52.6819 16.4828 52.3885 16.6161C52.1005 16.7495 51.8899 16.9068 51.7565 17.0881C51.6285 17.2695 51.5645 17.4721 51.5645 17.6961C51.5645 17.9095 51.5992 18.0935 51.6685 18.2481C51.7379 18.4028 51.8312 18.5308 51.9485 18.6321C52.0712 18.7281 52.2125 18.8001 52.3725 18.8481C52.5379 18.8908 52.7139 18.9121 52.9005 18.9121C53.1512 18.9121 53.3805 18.8881 53.5885 18.8401C53.7965 18.7868 53.9912 18.7121 54.1725 18.6161C54.3592 18.5201 54.5352 18.4055 54.7005 18.2721C54.8712 18.1388 55.0365 17.9868 55.1965 17.8161V16.1361ZM50.5965 12.8241C51.0445 12.3921 51.5272 12.0695 52.0445 11.8561C52.5619 11.6428 53.1352 11.5361 53.7645 11.5361C54.2179 11.5361 54.6205 11.6108 54.9725 11.7601C55.3245 11.9095 55.6205 12.1175 55.8605 12.3841C56.1005 12.6508 56.2819 12.9735 56.4045 13.3521C56.5272 13.7308 56.5885 14.1468 56.5885 14.6001V19.7841H55.9565C55.8179 19.7841 55.7112 19.7628 55.6365 19.7201C55.5619 19.6721 55.5032 19.5815 55.4605 19.4481L55.3005 18.6801C55.0872 18.8775 54.8792 19.0535 54.6765 19.2081C54.4739 19.3575 54.2605 19.4855 54.0365 19.5921C53.8125 19.6935 53.5725 19.7708 53.3165 19.8241C53.0659 19.8828 52.7859 19.9121 52.4765 19.9121C52.1619 19.9121 51.8659 19.8695 51.5885 19.7841C51.3112 19.6935 51.0685 19.5601 50.8605 19.3841C50.6579 19.2081 50.4952 18.9868 50.3725 18.7201C50.2552 18.4481 50.1965 18.1281 50.1965 17.7601C50.1965 17.4401 50.2845 17.1335 50.4605 16.8401C50.6365 16.5415 50.9219 16.2775 51.3165 16.0481C51.7112 15.8188 52.2259 15.6321 52.8605 15.4881C53.4952 15.3388 54.2739 15.2535 55.1965 15.2321V14.6001C55.1965 13.9708 55.0605 13.4961 54.7885 13.1761C54.5165 12.8508 54.1192 12.6881 53.5965 12.6881C53.2445 12.6881 52.9485 12.7335 52.7085 12.8241C52.4739 12.9095 52.2685 13.0081 52.0925 13.1201C51.9219 13.2268 51.7725 13.3255 51.6445 13.4161C51.5219 13.5015 51.3992 13.5441 51.2765 13.5441C51.1805 13.5441 51.0979 13.5201 51.0285 13.4721C50.9592 13.4188 50.9005 13.3548 50.8525 13.2801L50.5965 12.8241Z" fill="#0060FB"/>
<path d="M49.072 18.5201L49.064 19.7841H42V8.32007H49.064V9.58407H43.552V13.3921H48.016V14.6081H43.552V18.5201H49.072Z" fill="#0060FB"/>
</g>
<g filter="url(#filter2_d_47_56780)">
<path d="M4 13.9999C4 13.1099 4.12 12.2399 4.34 11.4199L2.41 10.8999C2.14 11.8899 2 12.9299 2 13.9999C2 17.3099 3.34 20.3099 5.51 22.4899L6.93 21.0699C5.12 19.2699 4 16.7699 4 13.9999Z" fill="#0040A7"/>
</g>
<g filter="url(#filter3_d_47_56780)">
<path d="M17.4199 23.3999C16.3499 23.7899 15.1999 23.9999 13.9999 23.9999C13.4099 23.9999 12.8299 23.9499 12.2699 23.8499L11.9199 25.8199C12.5899 25.9399 13.2899 25.9999 13.9999 25.9999C15.4399 25.9999 16.8199 25.7499 18.0999 25.2799L17.4199 23.3999Z" fill="#0040A7"/>
</g>
<g filter="url(#filter4_d_47_56780)">
<path d="M20.88 4.16992L19.73 5.80992C20.92 6.63992 21.93 7.72992 22.66 8.99992L24.39 7.99992C23.51 6.47992 22.31 5.16992 20.88 4.16992Z" fill="#0040A7"/>
</g>
<g filter="url(#filter5_d_47_56780)">
<path d="M8.92993 3.13L9.76993 4.94C11.0499 4.34 12.4899 4 13.9999 4C15.5099 4 16.9499 4.34 18.2299 4.94L19.0699 3.13C17.5299 2.4 15.8099 2 13.9999 2C12.1899 2 10.4699 2.4 8.92993 3.13Z" fill="#0060FB"/>
</g>
<g filter="url(#filter6_d_47_56780)">
<path d="M25.2799 9.88989L23.3999 10.5799C23.7899 11.6499 23.9999 12.7999 23.9999 13.9999C23.9999 15.1999 23.7899 16.3599 23.3999 17.4199L25.2799 18.1099C25.7399 16.8299 25.9999 15.4399 25.9999 13.9999C25.9999 12.5599 25.7399 11.1699 25.2799 9.88989Z" fill="#0060FB"/>
</g>
<g filter="url(#filter7_d_47_56780)">
<path d="M22.66 19C21.79 20.52 20.52 21.78 19 22.66L20 24.4C21.82 23.35 23.34 21.83 24.39 20L22.66 19Z" fill="#0051D2"/>
</g>
<g filter="url(#filter8_d_47_56780)">
<path d="M8.27012 22.1899L7.12012 23.8299C7.97012 24.4299 8.90012 24.9199 9.90012 25.2799L10.5801 23.3999C9.75012 23.0999 8.98012 22.6899 8.27012 22.1899Z" fill="#0060FB"/>
</g>
<g filter="url(#filter9_d_47_56780)">
<path d="M7.12012 4.16992C5.40012 5.36992 4.02012 7.00992 3.12012 8.92992L4.94012 9.77992C5.68012 8.17992 6.84012 6.80992 8.27012 5.80992L7.12012 4.16992Z" fill="#0051D2"/>
</g>
<g filter="url(#filter10_d_47_56780)">
<path d="M18.2401 9.76001L12.5901 15.41L9.76009 12.59L8.34009 14L12.5901 18.24L14.0001 16.83L19.6601 11.17L18.2401 9.76001Z" fill="#0051D2"/>
</g>
<defs>
<filter id="filter0_d_47_56780" x="70.531" y="6" width="40.7844" height="15.9119" filterUnits="userSpaceOnUse" color-interpolation-filters="sRGB">
<feFlood flood-opacity="0" result="BackgroundImageFix"/>
<feColorMatrix in="SourceAlpha" type="matrix" values="0 0 0 0 0 0 0 0 0 0 0 0 0 0 0 0 0 0 127 0" result="hardAlpha"/>
<feOffset/>
<feGaussianBlur stdDeviation="1"/>
<feComposite in2="hardAlpha" operator="out"/>
<feColorMatrix type="matrix" values="0 0 0 0 0 0 0 0 0 0.376471 0 0 0 0 0.984314 0 0 0 0.6 0"/>
<feBlend mode="normal" in2="BackgroundImageFix" result="effect1_dropShadow_47_56780"/>
<feBlend mode="normal" in="SourceGraphic" in2="effect1_dropShadow_47_56780" result="shape"/>
</filter>
<filter id="filter1_d_47_56780" x="40" y="6.32007" width="34.531" height="18.208" filterUnits="userSpaceOnUse" color-interpolation-filters="sRGB">
<feFlood flood-opacity="0" result="BackgroundImageFix"/>
<feColorMatrix in="SourceAlpha" type="matrix" values="0 0 0 0 0 0 0 0 0 0 0 0 0 0 0 0 0 0 127 0" result="hardAlpha"/>
<feOffset/>
<feGaussianBlur stdDeviation="1"/>
<feComposite in2="hardAlpha" operator="out"/>
<feColorMatrix type="matrix" values="0 0 0 0 0 0 0 0 0 0.376471 0 0 0 0 0.984314 0 0 0 0.6 0"/>
<feBlend mode="normal" in2="BackgroundImageFix" result="effect1_dropShadow_47_56780"/>
<feBlend mode="normal" in="SourceGraphic" in2="effect1_dropShadow_47_56780" result="shape"/>
</filter>
<filter id="filter2_d_47_56780" x="0" y="8.8999" width="8.92993" height="15.5901" filterUnits="userSpaceOnUse" color-interpolation-filters="sRGB">
<feFlood flood-opacity="0" result="BackgroundImageFix"/>
<feColorMatrix in="SourceAlpha" type="matrix" values="0 0 0 0 0 0 0 0 0 0 0 0 0 0 0 0 0 0 127 0" result="hardAlpha"/>
<feOffset/>
<feGaussianBlur stdDeviation="1"/>
<feComposite in2="hardAlpha" operator="out"/>
<feColorMatrix type="matrix" values="0 0 0 0 0 0 0 0 0 0.376471 0 0 0 0 0.984314 0 0 0 0.6 0"/>
<feBlend mode="normal" in2="BackgroundImageFix" result="effect1_dropShadow_47_56780"/>
<feBlend mode="normal" in="SourceGraphic" in2="effect1_dropShadow_47_56780" result="shape"/>
</filter>
<filter id="filter3_d_47_56780" x="9.91992" y="21.3999" width="10.1799" height="6.6001" filterUnits="userSpaceOnUse" color-interpolation-filters="sRGB">
<feFlood flood-opacity="0" result="BackgroundImageFix"/>
<feColorMatrix in="SourceAlpha" type="matrix" values="0 0 0 0 0 0 0 0 0 0 0 0 0 0 0 0 0 0 127 0" result="hardAlpha"/>
<feOffset/>
<feGaussianBlur stdDeviation="1"/>
<feComposite in2="hardAlpha" operator="out"/>
<feColorMatrix type="matrix" values="0 0 0 0 0 0 0 0 0 0.376471 0 0 0 0 0.984314 0 0 0 0.6 0"/>
<feBlend mode="normal" in2="BackgroundImageFix" result="effect1_dropShadow_47_56780"/>
<feBlend mode="normal" in="SourceGraphic" in2="effect1_dropShadow_47_56780" result="shape"/>
</filter>
<filter id="filter4_d_47_56780" x="17.73" y="2.16992" width="8.65991" height="8.83008" filterUnits="userSpaceOnUse" color-interpolation-filters="sRGB">
<feFlood flood-opacity="0" result="BackgroundImageFix"/>
<feColorMatrix in="SourceAlpha" type="matrix" values="0 0 0 0 0 0 0 0 0 0 0 0 0 0 0 0 0 0 127 0" result="hardAlpha"/>
<feOffset/>
<feGaussianBlur stdDeviation="1"/>
<feComposite in2="hardAlpha" operator="out"/>
<feColorMatrix type="matrix" values="0 0 0 0 0 0 0 0 0 0.376471 0 0 0 0 0.984314 0 0 0 0.6 0"/>
<feBlend mode="normal" in2="BackgroundImageFix" result="effect1_dropShadow_47_56780"/>
<feBlend mode="normal" in="SourceGraphic" in2="effect1_dropShadow_47_56780" result="shape"/>
</filter>
<filter id="filter5_d_47_56780" x="6.92993" y="0" width="14.1399" height="6.93994" filterUnits="userSpaceOnUse" color-interpolation-filters="sRGB">
<feFlood flood-opacity="0" result="BackgroundImageFix"/>
<feColorMatrix in="SourceAlpha" type="matrix" values="0 0 0 0 0 0 0 0 0 0 0 0 0 0 0 0 0 0 127 0" result="hardAlpha"/>
<feOffset/>
<feGaussianBlur stdDeviation="1"/>
<feComposite in2="hardAlpha" operator="out"/>
<feColorMatrix type="matrix" values="0 0 0 0 0 0 0 0 0 0.376471 0 0 0 0 0.984314 0 0 0 0.6 0"/>
<feBlend mode="normal" in2="BackgroundImageFix" result="effect1_dropShadow_47_56780"/>
<feBlend mode="normal" in="SourceGraphic" in2="effect1_dropShadow_47_56780" result="shape"/>
</filter>
<filter id="filter6_d_47_56780" x="21.3999" y="7.88989" width="6.6001" height="12.22" filterUnits="userSpaceOnUse" color-interpolation-filters="sRGB">
<feFlood flood-opacity="0" result="BackgroundImageFix"/>
<feColorMatrix in="SourceAlpha" type="matrix" values="0 0 0 0 0 0 0 0 0 0 0 0 0 0 0 0 0 0 127 0" result="hardAlpha"/>
<feOffset/>
<feGaussianBlur stdDeviation="1"/>
<feComposite in2="hardAlpha" operator="out"/>
<feColorMatrix type="matrix" values="0 0 0 0 0 0 0 0 0 0.376471 0 0 0 0 0.984314 0 0 0 0.6 0"/>
<feBlend mode="normal" in2="BackgroundImageFix" result="effect1_dropShadow_47_56780"/>
<feBlend mode="normal" in="SourceGraphic" in2="effect1_dropShadow_47_56780" result="shape"/>
</filter>
<filter id="filter7_d_47_56780" x="17" y="17" width="9.38989" height="9.3999" filterUnits="userSpaceOnUse" color-interpolation-filters="sRGB">
<feFlood flood-opacity="0" result="BackgroundImageFix"/>
<feColorMatrix in="SourceAlpha" type="matrix" values="0 0 0 0 0 0 0 0 0 0 0 0 0 0 0 0 0 0 127 0" result="hardAlpha"/>
<feOffset/>
<feGaussianBlur stdDeviation="1"/>
<feComposite in2="hardAlpha" operator="out"/>
<feColorMatrix type="matrix" values="0 0 0 0 0 0 0 0 0 0.376471 0 0 0 0 0.984314 0 0 0 0.6 0"/>
<feBlend mode="normal" in2="BackgroundImageFix" result="effect1_dropShadow_47_56780"/>
<feBlend mode="normal" in="SourceGraphic" in2="effect1_dropShadow_47_56780" result="shape"/>
</filter>
<filter id="filter8_d_47_56780" x="5.12012" y="20.1899" width="7.45996" height="7.09009" filterUnits="userSpaceOnUse" color-interpolation-filters="sRGB">
<feFlood flood-opacity="0" result="BackgroundImageFix"/>
<feColorMatrix in="SourceAlpha" type="matrix" values="0 0 0 0 0 0 0 0 0 0 0 0 0 0 0 0 0 0 127 0" result="hardAlpha"/>
<feOffset/>
<feGaussianBlur stdDeviation="1"/>
<feComposite in2="hardAlpha" operator="out"/>
<feColorMatrix type="matrix" values="0 0 0 0 0 0 0 0 0 0.376471 0 0 0 0 0.984314 0 0 0 0.6 0"/>
<feBlend mode="normal" in2="BackgroundImageFix" result="effect1_dropShadow_47_56780"/>
<feBlend mode="normal" in="SourceGraphic" in2="effect1_dropShadow_47_56780" result="shape"/>
</filter>
<filter id="filter9_d_47_56780" x="1.12012" y="2.16992" width="9.1499" height="9.61011" filterUnits="userSpaceOnUse" color-interpolation-filters="sRGB">
<feFlood flood-opacity="0" result="BackgroundImageFix"/>
<feColorMatrix in="SourceAlpha" type="matrix" values="0 0 0 0 0 0 0 0 0 0 0 0 0 0 0 0 0 0 127 0" result="hardAlpha"/>
<feOffset/>
<feGaussianBlur stdDeviation="1"/>
<feComposite in2="hardAlpha" operator="out"/>
<feColorMatrix type="matrix" values="0 0 0 0 0 0 0 0 0 0.376471 0 0 0 0 0.984314 0 0 0 0.6 0"/>
<feBlend mode="normal" in2="BackgroundImageFix" result="effect1_dropShadow_47_56780"/>
<feBlend mode="normal" in="SourceGraphic" in2="effect1_dropShadow_47_56780" result="shape"/>
</filter>
<filter id="filter10_d_47_56780" x="6.34009" y="7.76001" width="15.3201" height="12.48" filterUnits="userSpaceOnUse" color-interpolation-filters="sRGB">
<feFlood flood-opacity="0" result="BackgroundImageFix"/>
<feColorMatrix in="SourceAlpha" type="matrix" values="0 0 0 0 0 0 0 0 0 0 0 0 0 0 0 0 0 0 127 0" result="hardAlpha"/>
<feOffset/>
<feGaussianBlur stdDeviation="1"/>
<feComposite in2="hardAlpha" operator="out"/>
<feColorMatrix type="matrix" values="0 0 0 0 0 0 0 0 0 0.376471 0 0 0 0 0.984314 0 0 0 0.6 0"/>
<feBlend mode="normal" in2="BackgroundImageFix" result="effect1_dropShadow_47_56780"/>
<feBlend mode="normal" in="SourceGraphic" in2="effect1_dropShadow_47_56780" result="shape"/>
</filter>
</defs>
</svg>
