<svg width="24" height="24" viewBox="0 0 24 24" fill="none" xmlns="http://www.w3.org/2000/svg">
<g clip-path="url(#clip0_359_2740)">
<circle cx="12" cy="12" r="11" fill="white" fill-opacity="0.2"/>
<path d="M22.5 12C22.5039 9.47336 21.5928 7.03076 19.935 5.124L5.124 19.9365C6.64532 21.2547 8.5135 22.1078 10.506 22.3943C12.4985 22.6807 14.5313 22.3883 16.3624 21.552C18.1934 20.7157 19.7454 19.3706 20.8336 17.6771C21.9218 15.9836 22.5002 14.013 22.5 12ZM4.065 18.876L18.876 4.0635C16.8693 2.326 14.2789 1.41302 11.6262 1.50828C8.97353 1.60353 6.45534 2.69994 4.57839 4.57689C2.70144 6.45384 1.60503 8.97203 1.50978 11.6247C1.41452 14.2774 2.3275 16.8693 4.065 18.876ZM24 12C24 15.1826 22.7357 18.2348 20.4853 20.4853C18.2348 22.7357 15.1826 24 12 24C8.8174 24 5.76516 22.7357 3.51472 20.4853C1.26428 18.2348 0 15.1826 0 12C0 8.8174 1.26428 5.76516 3.51472 3.51472C5.76516 1.26428 8.8174 0 12 0C15.1826 0 18.2348 1.26428 20.4853 3.51472C22.7357 5.76516 24 8.8174 24 12Z" fill="white"/>
</g>
<defs>
<clipPath id="clip0_359_2740">
<rect width="24" height="24" fill="white"/>
</clipPath>
</defs>
</svg>
