<svg width="24" height="24" viewBox="0 0 24 24" fill="none" xmlns="http://www.w3.org/2000/svg">
<circle cx="12" cy="12" r="11" fill="white" fill-opacity="0.2"/>
<path d="M16.425 7.48799L16.455 7.45499C16.6649 7.2469 16.9483 7.12979 17.2439 7.12897C17.5395 7.12816 17.8235 7.2437 18.0346 7.45063C18.2457 7.65757 18.3668 7.93925 18.3719 8.2348C18.3769 8.53034 18.2654 8.81599 18.0615 9.02999L12.0735 16.515C11.9706 16.6256 11.8465 16.7144 11.7086 16.776C11.5706 16.8376 11.4217 16.8708 11.2706 16.8736C11.1196 16.8764 10.9695 16.8487 10.8294 16.7923C10.6893 16.7358 10.5619 16.6517 10.455 16.545L6.48602 12.5745C6.2873 12.3612 6.17911 12.0792 6.18426 11.7877C6.1894 11.4963 6.30747 11.2182 6.51359 11.0121C6.71971 10.8059 6.99778 10.6879 7.28924 10.6827C7.58069 10.6776 7.86276 10.7858 8.07602 10.9845L11.2155 14.1255L16.425 7.48799Z" fill="white"/>
<path fill-rule="evenodd" clip-rule="evenodd" d="M20.4853 20.4853C18.2348 22.7357 15.1826 24 12 24C8.8174 24 5.76516 22.7357 3.51472 20.4853C1.26428 18.2348 0 15.1826 0 12C0 8.8174 1.26428 5.76516 3.51472 3.51472C5.76516 1.26428 8.8174 0 12 0C15.1826 0 18.2348 1.26428 20.4853 3.51472C22.7357 5.76516 24 8.8174 24 12C24 15.1826 22.7357 18.2348 20.4853 20.4853ZM4.57538 19.4246C6.54451 21.3938 9.21523 22.5 12 22.5C14.7848 22.5 17.4555 21.3938 19.4246 19.4246C21.3938 17.4555 22.5 14.7848 22.5 12C22.5 9.21523 21.3938 6.54451 19.4246 4.57538C17.4555 2.60625 14.7848 1.5 12 1.5C9.21523 1.5 6.54451 2.60625 4.57538 4.57538C2.60625 6.54451 1.5 9.21523 1.5 12C1.5 14.7848 2.60625 17.4555 4.57538 19.4246Z" fill="white"/>
</svg>
