<svg width="24" height="24" viewBox="0 0 24 24" fill="none" xmlns="http://www.w3.org/2000/svg">
<ellipse cx="12" cy="12" rx="10.4539" ry="7.31299" fill="white" fill-opacity="0.2"/>
<path fill-rule="evenodd" clip-rule="evenodd" d="M8.28769 8.28769C7.30312 9.27226 6.75 10.6076 6.75 12C6.75 13.3924 7.30312 14.7277 8.28769 15.7123C9.27226 16.6969 10.6076 17.25 12 17.25C13.3924 17.25 14.7277 16.6969 15.7123 15.7123C16.6969 14.7277 17.25 13.3924 17.25 12C17.25 10.6076 16.6969 9.27226 15.7123 8.28769C14.7277 7.30312 13.3924 6.75 12 6.75C10.6076 6.75 9.27226 7.30312 8.28769 8.28769ZM9.34835 9.34835C10.0516 8.64509 11.0054 8.25 12 8.25C12.9946 8.25 13.9484 8.64509 14.6517 9.34835C15.3549 10.0516 15.75 11.0054 15.75 12C15.75 12.9946 15.3549 13.9484 14.6517 14.6517C13.9484 15.3549 12.9946 15.75 12 15.75C11.0054 15.75 10.0516 15.3549 9.34835 14.6517C8.64509 13.9484 8.25 12.9946 8.25 12C8.25 11.0054 8.64509 10.0516 9.34835 9.34835Z" fill="white"/>
<path fill-rule="evenodd" clip-rule="evenodd" d="M12 3.75C19.5 3.75 24 12 24 12C24 12 19.5 20.25 12 20.25C4.5 20.25 0 12 0 12C0 12 4.5 3.75 12 3.75ZM4.2495 8.9355C3.31795 9.87012 2.48367 10.8969 1.7595 12C2.48367 13.1031 3.31645 14.1299 4.248 15.0645C6.1815 16.998 8.8215 18.75 12 18.75C15.1785 18.75 17.8185 16.998 19.752 15.0645C20.7045 14.112 21.447 13.152 21.9495 12.432C22.0585 12.274 22.156 12.13 22.242 12C21.5178 10.8969 20.6836 9.87012 19.752 8.9355C17.8185 7.002 15.18 5.25 12 5.25C8.82 5.25 6.18 7.002 4.2495 8.9355Z" fill="white"/>
</svg>
