<svg width="24" height="24" viewBox="0 0 24 24" fill="none" xmlns="http://www.w3.org/2000/svg">
<path d="M4 3C4 1.89543 4.89543 1 6 1H13.222C13.7224 1 14.2046 1.18757 14.5735 1.52569L19.3514 5.90549C19.7647 6.28431 20 6.81919 20 7.3798V21C20 22.1046 19.1046 23 18 23H6C4.89543 23 4 22.1046 4 21V3Z" fill="white" fill-opacity="0.2"/>
<path d="M16.281 10.7191C16.3508 10.7888 16.4062 10.8716 16.444 10.9627C16.4818 11.0538 16.5013 11.1515 16.5013 11.2501C16.5013 11.3488 16.4818 11.4465 16.444 11.5376C16.4062 11.6287 16.3508 11.7115 16.281 11.7811L11.781 16.2811C11.7113 16.351 11.6285 16.4064 11.5374 16.4442C11.4463 16.482 11.3486 16.5015 11.25 16.5015C11.1513 16.5015 11.0536 16.482 10.9625 16.4442C10.8714 16.4064 10.7886 16.351 10.719 16.2811L8.46897 14.0311C8.39924 13.9614 8.34392 13.8786 8.30619 13.7875C8.26845 13.6964 8.24902 13.5987 8.24902 13.5001C8.24902 13.4015 8.26845 13.3039 8.30619 13.2127C8.34392 13.1216 8.39924 13.0389 8.46897 12.9691C8.6098 12.8283 8.80081 12.7492 8.99997 12.7492C9.09859 12.7492 9.19624 12.7686 9.28735 12.8063C9.37846 12.8441 9.46124 12.8994 9.53097 12.9691L11.25 14.6896L15.219 10.7191C15.2886 10.6493 15.3714 10.5939 15.4625 10.5561C15.5536 10.5182 15.6513 10.4988 15.75 10.4988C15.8486 10.4988 15.9463 10.5182 16.0374 10.5561C16.1285 10.5939 16.2113 10.6493 16.281 10.7191Z" fill="white"/>
<path d="M21 6.75V21C21 21.7956 20.6839 22.5587 20.1213 23.1213C19.5587 23.6839 18.7956 24 18 24H6C5.20435 24 4.44129 23.6839 3.87868 23.1213C3.31607 22.5587 3 21.7956 3 21V3C3 2.20435 3.31607 1.44129 3.87868 0.87868C4.44129 0.316071 5.20435 0 6 0L14.25 0L21 6.75ZM16.5 6.75C15.9033 6.75 15.331 6.51295 14.909 6.09099C14.4871 5.66903 14.25 5.09674 14.25 4.5V1.5H6C5.60218 1.5 5.22064 1.65804 4.93934 1.93934C4.65804 2.22064 4.5 2.60218 4.5 3V21C4.5 21.3978 4.65804 21.7794 4.93934 22.0607C5.22064 22.342 5.60218 22.5 6 22.5H18C18.3978 22.5 18.7794 22.342 19.0607 22.0607C19.342 21.7794 19.5 21.3978 19.5 21V6.75H16.5Z" fill="white"/>
</svg>
