<svg width="24" height="24" viewBox="0 0 24 24" fill="none" xmlns="http://www.w3.org/2000/svg">
<path d="M12 1L15.3676 3.86986L19.7782 4.22183L20.1301 8.63239L23 12L20.1301 15.3676L19.7782 19.7782L15.3676 20.1301L12 23L8.63239 20.1301L4.22183 19.7782L3.86986 15.3676L1 12L3.86986 8.63239L4.22183 4.22183L8.63239 3.86986L12 1Z" fill="white" fill-opacity="0.2"/>
<path fill-rule="evenodd" clip-rule="evenodd" d="M10.1366 7.50173C10.7273 7.25704 11.3605 7.1311 11.9999 7.1311C13.2912 7.1311 14.5296 7.64409 15.4428 8.5572C16.3559 9.47031 16.8689 10.7088 16.8689 12.0001C16.8689 13.2914 16.3559 14.5299 15.4428 15.443C14.5296 16.3561 13.2912 16.8691 11.9999 16.8691C11.3605 16.8691 10.7273 16.7432 10.1366 16.4985C9.54584 16.2538 9.00909 15.8951 8.55696 15.443C8.10483 14.9909 7.74618 14.4541 7.50149 13.8634C7.2568 13.2727 7.13086 12.6395 7.13086 12.0001C7.13086 11.3607 7.2568 10.7276 7.50149 10.1368C7.74618 9.54608 8.10483 9.00933 8.55696 8.5572C9.00909 8.10507 9.54584 7.74642 10.1366 7.50173ZM9.61762 9.61786C8.98581 10.2497 8.63086 11.1066 8.63086 12.0001C8.63086 12.8936 8.98581 13.7505 9.61762 14.3823C10.2494 15.0142 11.1063 15.3691 11.9999 15.3691C12.8934 15.3691 13.7503 15.0142 14.3821 14.3823C15.0139 13.7505 15.3689 12.8936 15.3689 12.0001C15.3689 11.1066 15.0139 10.2497 14.3821 9.61786C13.7503 8.98605 12.8934 8.6311 11.9999 8.6311C11.1063 8.6311 10.2494 8.98605 9.61762 9.61786Z" fill="white"/>
<path fill-rule="evenodd" clip-rule="evenodd" d="M9.30623 2.01448C10.0967 -0.670517 13.9037 -0.670517 14.6942 2.01448L14.8352 2.49298C14.8904 2.68041 14.9869 2.85311 15.1175 2.99842C15.2481 3.14373 15.4096 3.25797 15.5901 3.33276C15.7706 3.40755 15.9656 3.441 16.1607 3.43066C16.3558 3.42032 16.5461 3.36644 16.7177 3.27298L17.1557 3.03448C19.6142 1.69498 22.3067 4.38448 20.9672 6.84448L20.7272 7.28248C20.6338 7.45407 20.5799 7.6444 20.5695 7.83951C20.5592 8.03463 20.5927 8.22959 20.6674 8.41009C20.7422 8.5906 20.8565 8.75209 21.0018 8.88271C21.1471 9.01333 21.3198 9.10978 21.5072 9.16498L21.9857 9.30598C24.6707 10.0965 24.6707 13.9035 21.9857 14.694L21.5072 14.835C21.3198 14.8902 21.1471 14.9866 21.0018 15.1173C20.8565 15.2479 20.7422 15.4094 20.6674 15.5899C20.5927 15.7704 20.5592 15.9653 20.5695 16.1604C20.5799 16.3556 20.6338 16.5459 20.7272 16.7175L20.9657 17.1555C22.3067 19.614 19.6157 22.3065 17.1557 20.967L16.7177 20.727C16.5461 20.6335 16.3558 20.5796 16.1607 20.5693C15.9656 20.559 15.7706 20.5924 15.5901 20.6672C15.4096 20.742 15.2481 20.8562 15.1175 21.0015C14.9869 21.1469 14.8904 21.3196 14.8352 21.507L14.6942 21.9855C13.9037 24.6705 10.0967 24.6705 9.30623 21.9855L9.16523 21.507C9.11002 21.3196 9.01357 21.1469 8.88295 21.0015C8.75233 20.8562 8.59085 20.742 8.41034 20.6672C8.22983 20.5924 8.03487 20.559 7.83976 20.5693C7.64464 20.5796 7.45431 20.6335 7.28273 20.727L6.84473 20.9655C4.38473 22.3065 1.69523 19.6155 3.03323 17.1555L3.27323 16.7175C3.36668 16.5459 3.42056 16.3556 3.4309 16.1604C3.44125 15.9653 3.4078 15.7704 3.333 15.5899C3.25821 15.4094 3.14397 15.2479 2.99866 15.1173C2.85335 14.9866 2.68065 14.8902 2.49323 14.835L2.01473 14.694C-0.670273 13.9035 -0.670273 10.0965 2.01473 9.30598L2.49323 9.16498C2.68065 9.10978 2.85335 9.01333 2.99866 8.88271C3.14397 8.75209 3.25821 8.5906 3.333 8.41009C3.4078 8.22959 3.44125 8.03463 3.4309 7.83951C3.42056 7.6444 3.36668 7.45407 3.27323 7.28248L3.03473 6.84448C1.69523 4.38598 4.38473 1.69498 6.84473 3.03298L7.28273 3.27298C7.45431 3.36644 7.64464 3.42032 7.83976 3.43066C8.03487 3.441 8.22983 3.40755 8.41034 3.33276C8.59085 3.25797 8.75233 3.14373 8.88295 2.99842C9.01357 2.85311 9.11002 2.68041 9.16523 2.49298L9.30623 2.01448ZM13.2557 2.43898C12.8867 1.18648 11.1137 1.18648 10.7447 2.43898L10.6037 2.91748C10.4851 3.3194 10.2782 3.6897 9.99792 4.00126C9.71769 4.31282 9.37131 4.55775 8.98416 4.71811C8.59701 4.87846 8.17889 4.95018 7.76043 4.92801C7.34197 4.90584 6.93377 4.79035 6.56573 4.58998L6.12773 4.35148C4.98023 3.72748 3.72773 4.98148 4.35023 6.12748L4.59023 6.56548C4.79031 6.93347 4.90558 7.34153 4.9276 7.75981C4.94962 8.17809 4.87784 8.59601 4.71751 8.98297C4.55717 9.36992 4.31234 9.71614 4.00094 9.99626C3.68954 10.2764 3.31944 10.4833 2.91773 10.602L2.43923 10.743C1.18673 11.112 1.18673 12.885 2.43923 13.254L2.91773 13.395C3.32006 13.5135 3.69077 13.7205 4.00264 14.001C4.31452 14.2814 4.55965 14.6281 4.72004 15.0156C4.88044 15.4032 4.95203 15.8217 4.92957 16.2405C4.9071 16.6594 4.79115 17.0678 4.59023 17.436L4.35173 17.8725C3.72773 19.02 4.98173 20.2725 6.12773 19.65L6.56573 19.41C6.93377 19.2096 7.34197 19.0941 7.76043 19.072C8.17889 19.0498 8.59701 19.1215 8.98416 19.2819C9.37131 19.4422 9.71769 19.6871 9.99792 19.9987C10.2782 20.3103 10.4851 20.6806 10.6037 21.0825L10.7447 21.561C11.1137 22.8135 12.8867 22.8135 13.2557 21.561L13.3967 21.084C13.5151 20.6817 13.722 20.3111 14.0022 19.9992C14.2825 19.6873 14.629 19.4421 15.0164 19.2816C15.4038 19.121 15.8221 19.0492 16.2409 19.0715C16.6596 19.0937 17.068 19.2094 17.4362 19.41L17.8727 19.6485C19.0202 20.2725 20.2727 19.0185 19.6502 17.8725L19.4102 17.436C19.2096 17.0679 19.0939 16.6595 19.0715 16.2409C19.0492 15.8223 19.1209 15.4039 19.2813 15.0166C19.4416 14.6293 19.6867 14.2827 19.9984 14.0024C20.3101 13.722 20.6806 13.515 21.0827 13.3965L21.5612 13.2555C22.8137 12.8865 22.8137 11.1135 21.5612 10.7445L21.0842 10.6035C20.6822 10.4851 20.3117 10.2782 20 9.99805C19.6883 9.71789 19.4432 9.37153 19.2826 8.98436C19.1221 8.59719 19.0503 8.17901 19.0724 7.76047C19.0944 7.34192 19.2099 6.93362 19.4102 6.56548L19.6487 6.12748C20.2727 4.97998 19.0187 3.72748 17.8727 4.34998L17.4362 4.58998C17.0681 4.79063 16.6598 4.90635 16.2411 4.92867C15.8225 4.95098 15.4042 4.87933 15.0168 4.71895C14.6295 4.55858 14.283 4.31355 14.0026 4.00183C13.7223 3.69011 13.5153 3.31961 13.3967 2.91748L13.2557 2.43898Z" fill="white"/>
</svg>
