<svg width="24" height="24" viewBox="0 0 24 24" fill="none" xmlns="http://www.w3.org/2000/svg">
<rect x="4" y="8" width="16" height="15" fill="white" fill-opacity="0.2"/>
<path fill-rule="evenodd" clip-rule="evenodd" d="M5.25 9C5.05109 9 4.86032 9.07902 4.71967 9.21967C4.57902 9.36032 4.5 9.55109 4.5 9.75V21.75C4.5 21.9489 4.57902 22.1397 4.71967 22.2803C4.86032 22.421 5.05109 22.5 5.25 22.5H18.75C18.9489 22.5 19.1397 22.421 19.2803 22.2803C19.421 22.1397 19.5 21.9489 19.5 21.75V9.75C19.5 9.55109 19.421 9.36032 19.2803 9.21967C19.1397 9.07902 18.9489 9 18.75 9H15.75C15.5511 9 15.3603 8.92098 15.2197 8.78033C15.079 8.63968 15 8.44891 15 8.25C15 8.05109 15.079 7.86032 15.2197 7.71967C15.3603 7.57902 15.5511 7.5 15.75 7.5H18.75C19.3467 7.5 19.919 7.73705 20.341 8.15901C20.7629 8.58097 21 9.15326 21 9.75V21.75C21 22.3467 20.7629 22.919 20.341 23.341C19.919 23.7629 19.3467 24 18.75 24H5.25C4.65326 24 4.08097 23.7629 3.65901 23.341C3.23705 22.919 3 22.3467 3 21.75V9.75C3 9.15326 3.23705 8.58097 3.65901 8.15901C4.08097 7.73705 4.65326 7.5 5.25 7.5H8.25C8.44891 7.5 8.63968 7.57902 8.78033 7.71967C8.92098 7.86032 9 8.05109 9 8.25C9 8.44891 8.92098 8.63968 8.78033 8.78033C8.63968 8.92098 8.44891 9 8.25 9H5.25Z" fill="white"/>
<path fill-rule="evenodd" clip-rule="evenodd" d="M12.531 16.2797C12.4614 16.3495 12.3786 16.4049 12.2875 16.4427C12.1964 16.4805 12.0987 16.5 12 16.5C11.9014 16.5 11.8037 16.4805 11.7126 16.4427C11.6215 16.4049 11.5387 16.3495 11.469 16.2797L6.96903 11.7797C6.8282 11.6388 6.74908 11.4478 6.74908 11.2487C6.74908 11.0495 6.8282 10.8585 6.96903 10.7177C7.10986 10.5768 7.30087 10.4977 7.50003 10.4977C7.69919 10.4977 7.8902 10.5768 8.03103 10.7177L11.25 13.9382L11.25 0.748659C11.25 0.549747 11.329 0.358981 11.4697 0.218328C11.6104 0.0776762 11.8011 -0.00134087 12 -0.00134085C12.1989 -0.00134083 12.3897 0.0776762 12.5304 0.218329C12.671 0.358981 12.75 0.549747 12.75 0.748659L12.75 13.9382L15.969 10.7177C16.0388 10.6479 16.1215 10.5926 16.2127 10.5549C16.3038 10.5171 16.4014 10.4977 16.5 10.4977C16.6992 10.4977 16.8902 10.5768 17.031 10.7177C17.1008 10.7874 17.1561 10.8702 17.1938 10.9613C17.2316 11.0524 17.251 11.15 17.251 11.2487C17.251 11.4478 17.1719 11.6388 17.031 11.7797L12.531 16.2797Z" fill="white"/>
</svg>
