<svg width="24" height="24" viewBox="0 0 24 24" fill="none" xmlns="http://www.w3.org/2000/svg">
<circle cx="12" cy="12" r="11" fill="white" fill-opacity="0.2"/>
<path d="M8.04918 8.04918C7.69754 8.40081 7.5 8.87772 7.5 9.375V14.625C7.5 15.1223 7.69754 15.5992 8.04918 15.9508C8.40081 16.3025 8.87772 16.5 9.375 16.5C9.87228 16.5 10.3492 16.3025 10.7008 15.9508C11.0525 15.5992 11.25 15.1223 11.25 14.625V9.375C11.25 8.87772 11.0525 8.40081 10.7008 8.04918C10.3492 7.69754 9.87228 7.5 9.375 7.5C8.87772 7.5 8.40081 7.69754 8.04918 8.04918Z" fill="white"/>
<path d="M13.2992 8.04918C12.9475 8.40081 12.75 8.87772 12.75 9.375V14.625C12.75 15.1223 12.9475 15.5992 13.2992 15.9508C13.6508 16.3025 14.1277 16.5 14.625 16.5C15.1223 16.5 15.5992 16.3025 15.9508 15.9508C16.3025 15.5992 16.5 15.1223 16.5 14.625V9.375C16.5 8.87772 16.3025 8.40081 15.9508 8.04918C15.5992 7.69754 15.1223 7.5 14.625 7.5C14.1277 7.5 13.6508 7.69754 13.2992 8.04918Z" fill="white"/>
<path fill-rule="evenodd" clip-rule="evenodd" d="M20.4853 20.4853C18.2348 22.7357 15.1826 24 12 24C8.8174 24 5.76516 22.7357 3.51472 20.4853C1.26428 18.2348 0 15.1826 0 12C0 8.8174 1.26428 5.76516 3.51472 3.51472C5.76516 1.26428 8.8174 0 12 0C15.1826 0 18.2348 1.26428 20.4853 3.51472C22.7357 5.76516 24 8.8174 24 12C24 15.1826 22.7357 18.2348 20.4853 20.4853ZM4.57538 19.4246C6.54451 21.3938 9.21523 22.5 12 22.5C14.7848 22.5 17.4555 21.3938 19.4246 19.4246C21.3938 17.4555 22.5 14.7848 22.5 12C22.5 9.21523 21.3938 6.54451 19.4246 4.57538C17.4555 2.60625 14.7848 1.5 12 1.5C9.21523 1.5 6.54451 2.60625 4.57538 4.57538C2.60625 6.54451 1.5 9.21523 1.5 12C1.5 14.7848 2.60625 17.4555 4.57538 19.4246Z" fill="white"/>
</svg>
