<svg width="24" height="24" viewBox="0 0 24 24" fill="none" xmlns="http://www.w3.org/2000/svg">
<path d="M23 5L19 1L4 15.5L1 23L8 20L23 5Z" fill="white" fill-opacity="0.2"/>
<path d="M18.219 0.21912C18.2886 0.149275 18.3714 0.0938608 18.4625 0.0560512C18.5536 0.0182415 18.6513 -0.0012207 18.75 -0.0012207C18.8486 -0.0012207 18.9463 0.0182415 19.0374 0.0560512C19.1285 0.0938608 19.2113 0.149275 19.281 0.21912L23.781 4.71912C23.8508 4.78879 23.9062 4.87155 23.944 4.96267C23.9818 5.05379 24.0013 5.15147 24.0013 5.25012C24.0013 5.34877 23.9818 5.44645 23.944 5.53757C23.9062 5.62869 23.8508 5.71145 23.781 5.78112L8.78095 20.7811C8.70898 20.8526 8.62325 20.9087 8.52895 20.9461L1.02895 23.9461C0.892657 24.0007 0.743347 24.014 0.599533 23.9845C0.455718 23.955 0.323724 23.884 0.219914 23.7802C0.116105 23.6763 0.0450444 23.5444 0.0155432 23.4005C-0.013958 23.2567 -0.00060275 23.1074 0.0539533 22.9711L3.05395 15.4711C3.09135 15.3768 3.14748 15.2911 3.21895 15.2191L18.219 0.21912ZM16.8105 3.75012L20.25 7.18962L22.1895 5.25012L18.75 1.81062L16.8105 3.75012ZM19.1895 8.25012L15.75 4.81062L5.99995 14.5606V15.0001H6.74995C6.94887 15.0001 7.13963 15.0791 7.28028 15.2198C7.42094 15.3604 7.49995 15.5512 7.49995 15.7501V16.5001H8.24995C8.44887 16.5001 8.63963 16.5791 8.78028 16.7198C8.92094 16.8604 8.99995 17.0512 8.99995 17.2501V18.0001H9.43945L19.1895 8.25012ZM4.54795 16.0126L4.38895 16.1716L2.09695 21.9031L7.82845 19.6111L7.98745 19.4521C7.84438 19.3987 7.72104 19.3028 7.63393 19.1774C7.54681 19.0519 7.50007 18.9029 7.49995 18.7501V18.0001H6.74995C6.55104 18.0001 6.36028 17.9211 6.21962 17.7805C6.07897 17.6398 5.99995 17.449 5.99995 17.2501V16.5001H5.24995C5.09722 16.5 4.94817 16.4533 4.82272 16.3661C4.69727 16.279 4.60141 16.1557 4.54795 16.0126Z" fill="white"/>
</svg>
