<svg width="24" height="24" viewBox="0 0 24 24" fill="none" xmlns="http://www.w3.org/2000/svg">
<g clip-path="url(#clip0_254_3158)">
<circle cx="12" cy="12" r="11" fill="white" fill-opacity="0.2"/>
<path d="M9.80452 7.50126C9.6669 7.49121 9.52918 7.51931 9.4065 7.58248C9.28393 7.64563 9.18115 7.74134 9.10943 7.8591C9.03772 7.97685 8.99986 8.1121 9 8.24998V15.75C8.99989 15.8879 9.03781 16.0232 9.10958 16.1409C9.18136 16.2587 9.28422 16.3544 9.40686 16.4175C9.52949 16.4806 9.66715 16.5086 9.80469 16.4986C9.94224 16.4885 10.0744 16.4407 10.1865 16.3605L15.4365 12.6105C15.5337 12.5411 15.613 12.4495 15.6676 12.3433C15.7223 12.2371 15.7509 12.1194 15.7509 12C15.7509 11.8805 15.7223 11.7628 15.6676 11.6566C15.613 11.5505 15.5337 11.4589 15.4365 11.3895L10.1865 7.63948C10.0743 7.55915 9.94214 7.51132 9.80452 7.50126Z" fill="white"/>
<path fill-rule="evenodd" clip-rule="evenodd" d="M20.4853 20.4853C18.2348 22.7357 15.1826 24 12 24C8.8174 24 5.76516 22.7357 3.51472 20.4853C1.26428 18.2348 0 15.1826 0 12C0 8.8174 1.26428 5.76516 3.51472 3.51472C5.76516 1.26428 8.8174 0 12 0C15.1826 0 18.2348 1.26428 20.4853 3.51472C22.7357 5.76516 24 8.8174 24 12C24 15.1826 22.7357 18.2348 20.4853 20.4853ZM4.57538 19.4246C6.54451 21.3938 9.21523 22.5 12 22.5C14.7848 22.5 17.4555 21.3938 19.4246 19.4246C21.3938 17.4555 22.5 14.7848 22.5 12C22.5 9.21523 21.3938 6.54451 19.4246 4.57538C17.4555 2.60625 14.7848 1.5 12 1.5C9.21523 1.5 6.54451 2.60625 4.57538 4.57538C2.60625 6.54451 1.5 9.21523 1.5 12C1.5 14.7848 2.60625 17.4555 4.57538 19.4246Z" fill="white"/>
</g>
<defs>
<clipPath id="clip0_254_3158">
<rect width="24" height="24" fill="white"/>
</clipPath>
</defs>
</svg>
