<svg width="24" height="24" viewBox="0 0 24 24" fill="none" xmlns="http://www.w3.org/2000/svg">
<path fill-rule="evenodd" clip-rule="evenodd" d="M12 4.5C10.3791 4.50062 8.80195 5.02639 7.50486 5.99856C6.20778 6.97072 5.26056 8.33696 4.8051 9.89262C4.34963 11.4483 4.41043 13.1096 4.97838 14.6278C5.54633 16.1461 6.59087 17.4394 7.95555 18.3142C9.32022 19.1889 10.9316 19.598 12.5482 19.4801C14.1649 19.3623 15.6999 18.7238 16.9233 17.6604C18.1467 16.597 18.9926 15.1658 19.3343 13.5813C19.6761 11.9968 19.4953 10.3442 18.8191 8.871C18.7454 8.69189 18.744 8.49126 18.8149 8.31108C18.8859 8.13091 19.0238 7.98516 19.1997 7.90435C19.3757 7.82353 19.5761 7.81391 19.759 7.8775C19.9419 7.94109 20.0932 8.07295 20.1811 8.2455C20.9925 10.0134 21.2094 11.9966 20.7992 13.8981C20.3889 15.7996 19.3736 17.5169 17.9054 18.793C16.4372 20.069 14.5951 20.835 12.655 20.9762C10.7149 21.1175 8.78129 20.6263 7.14375 19.5764C5.50622 18.5264 4.25294 16.9742 3.57164 15.1522C2.89034 13.3301 2.8177 11.3364 3.3646 9.46967C3.9115 7.6029 5.04849 5.96357 6.60528 4.79723C8.16206 3.63089 10.0548 3.00033 12 3V4.5Z" fill="white"/>
<path d="M12 6.69889V0.800885C12 0.72963 12.0203 0.659857 12.0586 0.599737C12.0968 0.539617 12.1514 0.491638 12.2159 0.461419C12.2805 0.4312 12.3523 0.419992 12.4229 0.429106C12.4936 0.438221 12.5602 0.467282 12.615 0.512885L16.155 3.46189C16.1972 3.49708 16.2311 3.54112 16.2544 3.59089C16.2777 3.64065 16.2898 3.69493 16.2898 3.74988C16.2898 3.80484 16.2777 3.85912 16.2544 3.90888C16.2311 3.95865 16.1972 4.00269 16.155 4.03788L12.615 6.98689C12.5602 7.03249 12.4936 7.06155 12.4229 7.07066C12.3523 7.07978 12.2805 7.06857 12.2159 7.03835C12.1514 7.00813 12.0968 6.96015 12.0586 6.90003C12.0203 6.83991 12 6.77014 12 6.69889Z" fill="white"/>
</svg>
